<svg id="Layer_1" data-name="Layer 1" xmlns="http://www.w3.org/2000/svg" xmlns:xlink="http://www.w3.org/1999/xlink" viewBox="0 0 2747.2 979.35"><defs><style>.cls-1,.cls-2{fill-rule:evenodd;}.cls-1{fill:url(#GradientFill_1);}.cls-2,.cls-3{fill:#fff;}.cls-4{fill:url(#GradientFill_1-2);}.cls-5{fill:url(#GradientFill_1-3);}.cls-6{fill:url(#GradientFill_1-4);}</style><linearGradient id="GradientFill_1" x1="812.82" y1="544.98" x2="122.13" y2="416.08" gradientUnits="userSpaceOnUse"><stop offset="0" stop-color="#e41c42"/><stop offset="1" stop-color="#ec7948"/></linearGradient><linearGradient id="GradientFill_1-2" x1="2362.53" y1="402.98" x2="2643.15" y2="402.98" xlink:href="#GradientFill_1"/><linearGradient id="GradientFill_1-3" x1="1431.87" y1="725.02" x2="2295.09" y2="725.02" xlink:href="#GradientFill_1"/><linearGradient id="GradientFill_1-4" x1="1431.87" y1="725.02" x2="2295.09" y2="725.02" xlink:href="#GradientFill_1"/></defs><path class="cls-1" d="M104.58,510.52A410.92,410.92,0,0,1,198,227.67l92.11,31.72A374.39,374.39,0,0,0,180.55,543.82c10.17,200.92,176.55,356.9,375.6,356.35-6.24.6-12.5,1.08-18.82,1.4C309.84,913.09,116.1,738,104.58,510.52ZM259.49,167.09q50.83,18.28,101.7,36.52A373.56,373.56,0,0,1,536.43,150c200.92-10.17,372.9,139.6,392.45,337.69q0-9.39-.51-18.87c-11.51-227.48-205.26-402.56-432.74-391A410.45,410.45,0,0,0,259.49,167.09Z"/><path class="cls-2" d="M195.81,543.05q-.48-9.33-.47-18.56c14,135.15,110.35,244,236,278.65A306.49,306.49,0,0,1,502.56,718a245.69,245.69,0,0,0-80.29,62.11q-22.86-50.48-34.14-94.37,10.81.6,24.16-4-14.4,1.74-25.58-1.7-2-8.34-3.61-16.43,13.92,5.6,36.23-5.82-36,8.36-38.92-9.62a271.07,271.07,0,0,1-2.23-64.44c10.19,5.12,24.51,8,39.26-1.39q-33.06,13.3-47.31-18.23h0l-3.23-8.07-10.46-16.9,12.47-12.48q3.6-11.67,23.75-17.51l1.46-22.4q4.41,4.88,9.59,10.11s3.3.14,9.81.45q-1.92-.22-9-1.71a157.88,157.88,0,0,1-16.17-19q-8.94-12.9-11.18-25a20.71,20.71,0,0,0,3.54-14.79l-8.64,1a69.18,69.18,0,0,1-2.94-20c0-34.83,25.82-63.81,59.88-69.87a66.21,66.21,0,0,0-51.73,70.19A24.69,24.69,0,0,1,395,396.59q-12.08-18.76,22.94-32.6l-10.87,1.81a75.9,75.9,0,0,1,40.22-18.87c38.07,2.49,68.15,33.27,68.15,70.87v.1l9-.51a1.89,1.89,0,1,1,.6,3.73l-13,1.22h0l-4.88.54V423l-63.78,7L507,425.54a23.3,23.3,0,0,1-6,12.58,50.91,50.91,0,0,1,3,11.25h0c7.26,4,16.47,9.12,18.56,12.1q2.24,3.18,1,5.87-1.16,2.44-5.22,3.95a32.16,32.16,0,0,1-4.85,1.29,19.44,19.44,0,0,1,6.06,5.31,4.94,4.94,0,0,1,.65,4.84,7.75,7.75,0,0,1-3.89,3.59,36.54,36.54,0,0,1-9.31,2.83c0,1.45.05,2.9,0,4.35q5.63,3.15,7.28,5.61a3.77,3.77,0,0,1,.66,3.45q1.33-3.07-2.11-6.34,19.44-12.1,32.68-12.49,8.61,2.31,23.75.4a35.19,35.19,0,0,1-18.92-2.81q23.34-1.86,33.31-11.47,2.36,1.46,1.11,12.57-24,9.06-66.62,29.79-4.71-1.52-12.48-1a35.2,35.2,0,0,0,1.06-3.81,19.91,19.91,0,0,0,5.94-2.48h0a11.25,11.25,0,0,1-2.24.88,30.78,30.78,0,0,1-4.66.89q-.46,2.78-1.11,5.54a98.3,98.3,0,0,1,10.68,2q-9,6.62-23.45,18.29,9.33-8.56,27.44-17.69,10.63-4.89,19.67-9h0q41.88-19.08,49.78-21.83l4.2-1.5q11.08-84.09,11.67-91.36l-8,1.61q-2.37-14.61-.4-17.31-27.55,6.75-33.81-25.76-5.89-18-6.84-22.94,9.49-.81,12.67,6.54c.42-2.23.75-4.48,1-6.73l-19.37-5.36c-.32.44-.65.88-1,1.31a19.69,19.69,0,0,1-2.13,2.66,25.42,25.42,0,0,1-6.42,5.33l-335.54-115c-7.57-10.4-.38-27.13,8.45-33.41,0,0,99.32,37.27,306.42,96.91L220.23,171.82a40.74,40.74,0,0,0-18.45,21.6,26.52,26.52,0,0,1,17.34-25.73L554.69,283.4a40.59,40.59,0,0,1,1.94,6.68l.75.23,0-.87q.87.69,1.68,1.38h0q7.59,6.44,9.83,12.43v-.05l0,.14a15,15,0,0,1,.7,2.58,94.22,94.22,0,0,1,2.48,32.69l2.21,4.23a55.32,55.32,0,0,0-12.48-61.38,8.94,8.94,0,0,1,5.44-6,9.6,9.6,0,0,1,18.91,1.21l2.62,3a8.66,8.66,0,0,1,16.9,3.82,9.09,9.09,0,0,1,17.71,2.62,11.6,11.6,0,0,1,19.09,6.31c1.61,5.35,3,10.78,4.07,16.25a13.32,13.32,0,0,1,3.68-6.65l-2,16.64q.64,4.59,1.07,9.21a15.09,15.09,0,0,1,12.07-.1q4.21-.42,3.42,4.83a4.23,4.23,0,0,1-5.84,4.63c-.61,1.53.37,3.61,2.92,6.24q2.53,3.57-2.72,6.24-2.82,3.06,0,7.14,4.95,3.18-.2,5a14.56,14.56,0,0,0,4,14.59,26.24,26.24,0,0,0,13-1.51,23.83,23.83,0,0,1-10.57,6.55l.91,3.62a25.74,25.74,0,0,0,15.09-1.91,17,17,0,0,1-13.28,6.64q0,5.27-3.93,16.3l1.92.1q4.31-9.58,32.3,3.62a9.46,9.46,0,0,0,10.16-9.66q-3.51-.24-5.84-6.84a17.15,17.15,0,0,1-10.26-7.65A6.57,6.57,0,0,0,698,383.8a16.51,16.51,0,0,1-12.07-2.21,4.83,4.83,0,0,0,4.22-4.83,25.52,25.52,0,0,1-15.39,2.51,20.5,20.5,0,0,0,10.56-10.46,14.09,14.09,0,0,1-8.25,2.91,31.9,31.9,0,0,1-9.1-29h0a6.42,6.42,0,0,1,.48-2.08c.11-.44.24-.88.37-1.31l.19.44A11.3,11.3,0,0,0,680.47,337h0a8.82,8.82,0,0,1-12.92-12q1.76,6.51,16.55,4.73,6.23,7.25,16.4,1c-.45-5.14,0-7.35,1.51-6.65q10.2,6.39,17.81-.6,5.59,9.95,3.82,19.72l-2.43-.11,11.72,2.25a26.21,26.21,0,0,1-8.46,32.09l-3.15-1h0q-19.47-25.56-45-24.35l-4.08-4.63,2.58,6.11c14.73-1.91,29.45,6.07,44,22.07,2.07,19.87-3.73,31.55-17.19,36.9a43.87,43.87,0,0,1-6.44,23.95,23.13,23.13,0,0,1-3.88,1.56c-.53,2.26-14.6,31.49-16.25,35.26a68.55,68.55,0,0,0-4.22-29.58,86.2,86.2,0,0,1-12.48,61,246.46,246.46,0,0,0-6.24-102.84,14,14,0,0,0,2.52-15.49,44.74,44.74,0,0,1-5.54-35.22q-6.76-11.46-2.31-21a116.11,116.11,0,0,0-7.15-38.46,13.23,13.23,0,0,0-16.28.52l-3.12-1.41A5.34,5.34,0,1,0,609.87,289a16.19,16.19,0,0,0-8.25-1.81A6.07,6.07,0,0,0,590,284L586,286.19a15.26,15.26,0,0,1-11.27,2.31A75.12,75.12,0,0,1,582.5,346a14.55,14.55,0,0,0,11.77,14.59,51.44,51.44,0,0,1,52.33-6,4,4,0,0,1-2,6,39.13,39.13,0,0,0,.21,7.34,6.86,6.86,0,0,1,.5,7.45,27.49,27.49,0,0,1,4.43,7.15,3.42,3.42,0,0,1-5.14,3q-6.8-6.21-24.45-2.51a137.52,137.52,0,0,0,3.52,63.49,153.56,153.56,0,0,1-6.84-14.08c4.08,19,11.07,38,1,61.27A42.91,42.91,0,0,0,619,482.4c-2.11,11.13-13.75,13.22-23,13.61q5,11.89,4.35,28.08a298.31,298.31,0,0,0,42.41-13.39c-5.45,3.94-10.2,7.16-14.91,9.14,21.33-5.63,30.79-12.27,30.79-12.27q-23.82,38.54-69.51,55c-.16.76-.31,1.54-.45,2.35q11.82,17.34.8,43.47a65.57,65.57,0,0,0-12.68-.88h0q-2.58.07-5.13.36c-16,1.47-42.17,11.71-56.22,19.56,15.73-13,40.7-33.08,53.33-49.1-46.38,43.38-86.91,66.19-108.67,74.06a214.88,214.88,0,0,0,73.05-25.56q17.24-7.34,32.83-7.93c29.64,53.18,33.67,110,21,169.53a237,237,0,0,0,8.21-106.5q23.31,64.2,15.32,119.32A324.7,324.7,0,0,0,810.68,629.12h0q1.06-2.26,2.1-4.54c.38-.84.75-1.69,1.13-2.53s.73-1.66,1.09-2.5a324.71,324.71,0,0,0-2-262.18l-.14,0a324.25,324.25,0,0,0-42.18-68.93h.08A326.13,326.13,0,0,0,739,254.09l-.77-.72-1.93-1.78-1.44-1.31-1.4-1.25-2.19-1.95-.77-.67c-1-.87-2-1.74-3-2.59l-.11-.1a324.44,324.44,0,0,0-55-37.74l-.28-.15c-1.15-.62-2.29-1.24-3.45-1.85l-.87-.46L664.94,202l-1.26-.64-2.53-1.27-1.43-.7-2.43-1.18-1.53-.73-2.28-1.06-1.75-.81-2.1-.94-1.8-.8-.33-.15h0a322.23,322.23,0,0,0-128.82-27.1q9.2-.93,18.52-1.41C735.8,155.2,904.94,308.05,915,506.64S772.2,874.39,573.61,884.44,205.86,741.65,195.81,543.05Zm308.52-90.14a70,70,0,0,1-.88,17.66c6.11-.43,10.67-1.21,13.67-2.31,1.88-.7,3-1.46,3.42-2.3.31-.66.08-1.55-.69-2.65-1.81-2.58-8.68-6.58-15.52-10.37v0Zm-2.41,21q-18.85,1.5-35.38,1.24-2.3,12.09-4,23t-2.8,20.81q1-5.76,2-10.87a161.37,161.37,0,0,0,27.82,1.16l-.69,1.34,3.33.29c.75-.6,1.5-1.19,2.24-1.76q4.26-.23,7.66-.75c.09-.44.17-.89.25-1.33q-4.87.35-11.79.25v0q-15.24-.06-28.45-1.19c1-5.16,1.83-9.81,2.64-13.94a139.78,139.78,0,0,0,32.58,0q-2.25,5.82-5.19,11.95,5.31,0,9.25-.2l1.63-1.17q.54-4.21.67-8.45c0-1.52.05-3,0-4.56-2.55.4-5.4.76-8.55,1.06l0-.32a180.7,180.7,0,0,1-29.92-.59q1.5-7.68,2.63-12.74h0a251.26,251.26,0,0,0,34.47-1.34l-.36-1.85Zm-38.64,1.17q-25.15-.68-44.77-5.54a198.54,198.54,0,0,0,44.43,7.35l.34-1.81Zm-2.54,14.23A177,177,0,0,1,417.4,477.9a146.44,146.44,0,0,0,43,13.67c.12-.74.25-1.49.38-2.25Zm-2.54,16.42A186.14,186.14,0,0,1,422.43,499,217.67,217.67,0,0,0,458,507.55l.25-1.81Zm1.56,13.2Zm-70-71.73q-14.72,6.48,23,45.68-32.67-36.9-23-45.68Zm112.56,28.88a109.43,109.43,0,0,1-3.18,11c1.57-.2,3-.4,4.41-.62a86.59,86.59,0,0,0-1.23-10.39ZM681.68,335.58l1.32.25a9.35,9.35,0,0,1-.46-1.84,8.67,8.67,0,0,1-.86,1.59Zm2.85,3h0q5.78,8,17,.82h0l17.7,3.39a25.32,25.32,0,0,0-.89-10.13,8.91,8.91,0,0,1-17.16,2.41,9.54,9.54,0,0,1-16.67,3.51Zm42.91,31.78q6.84-7.06,4.08-19.42a17.62,17.62,0,0,0-4.08,19.42ZM505.14,473.65a92.44,92.44,0,0,1,1.6,12.26,33.06,33.06,0,0,0,8-2.46,4.82,4.82,0,0,0,2.37-2,1.93,1.93,0,0,0-.38-1.83c-1-1.49-4.6-4.39-7.95-6.35h0c-1.15.14-2.36.26-3.65.37Zm1.61,23.46q-.19,3.17-.6,6.3l1.26-.2c.19-1.23.36-2.53.52-3.91l1.09-.72c-.65-.46-1.41-.95-2.27-1.47Zm97-160.22a95.71,95.71,0,0,0-6.65-34.5,113.75,113.75,0,0,1,1,36.54c-1.83.75-3.62,1.59-5.39,2.51a2.66,2.66,0,0,0,2.32,4.73,78.45,78.45,0,0,1,41.55-6A3.06,3.06,0,0,0,639,335.8c-2-.48-4-.87-6-1.17a51.74,51.74,0,0,0-5-28.41,168.2,168.2,0,0,1-.42,27.85,65.68,65.68,0,0,0-9.92.1,72.56,72.56,0,0,0-6.56-29.26,81.78,81.78,0,0,1,2,29.8A66.43,66.43,0,0,0,603.73,336.89Z"/><path class="cls-2" d="M670.59,299.53q-9.78-9-18.87.8a13.31,13.31,0,0,0-2,16.52,14.52,14.52,0,0,0,16.93,1.36,17.29,17.29,0,0,1-8.59-1.89,5,5,0,0,0,3.49-9.09q-8.18-1.32-3.29-4.3a7.81,7.81,0,0,1,11,6.09,11,11,0,0,1,14.89,3.2,10.92,10.92,0,0,1,14.38,2q-13.15-3-12.29,5,9.35.19,12.19,4c.57-4.85,2.06-7,4.5-6.5q11.25-1.35,13.78,5,3.09-9-12.79-8.19-3-8.61-16.88-5.8Q683.44,293.9,670.59,299.53Z"/><path class="cls-3" d="M1127.71,306.9q22.13-41.94,61-65.58c25.93-15.76,55.92-23.39,90-23.39,31.52,0,58.46,5.59,80.32,16.78,21.86,11.69,39.66,26.94,52.88,46.26a183.38,183.38,0,0,1,25.92,66.09h-85.4c-3.56-16.78-11.19-30-23.9-40.67-12.71-10.17-29-15.25-49.82-15.25-26.94,0-48.29,10.16-64.56,30-16.27,20.34-24.4,47.79-24.4,81.85s8.13,61,24.4,81.34,37.62,30.5,64.56,30.5c20.84,0,37.62-5.08,50.33-14.74s20.84-22.88,24.4-38.64h84.39c-4.06,23.9-12.71,45.76-25.92,64.57A134.79,134.79,0,0,1,1359,571.25c-21.86,11.19-48.8,16.78-80.32,16.78-34.06,0-64-7.63-90-23.9q-38.9-23.64-61-65.58c-14.74-28-21.86-59.48-21.86-95.57S1113,334.86,1127.71,306.9Z"/><path class="cls-3" d="M1582.2,574.3c-22.37-9.15-41.69-21.86-57.45-38.63a169.75,169.75,0,0,1-37.62-59c-9.15-22.37-13.73-46.77-13.73-73.71s4.58-51.35,13.73-74.22a172.43,172.43,0,0,1,37.62-58.47c15.76-16.77,35.08-29.48,57.45-38.63,21.86-9.16,46.26-13.73,72.69-13.73,26.95,0,51.35,4.57,73.72,13.73,21.86,9.15,41.18,21.86,57.44,38.63a181.8,181.8,0,0,1,38.13,58.47A207,207,0,0,1,1837.4,403c0,26.94-4.58,51.34-13.22,73.71a178.67,178.67,0,0,1-38.13,59c-16.26,16.77-35.58,29.48-57.44,38.63-22.37,9.15-46.77,13.73-73.72,13.73C1628.46,588,1604.06,583.45,1582.2,574.3Zm124-73.71c14.74-9.15,25.93-22.37,34.57-39.15s12.71-36.09,12.71-58.46-4.07-42.2-12.71-59-19.83-29.49-34.57-39.15c-14.74-9.15-32-13.72-51.35-13.72q-28.22,0-50.33,13.72A95.92,95.92,0,0,0,1570,344c-8.64,16.77-12.71,36.6-12.71,59s4.07,41.69,12.71,58.46c8.14,16.78,19.83,30,34.57,39.15,14.75,9.66,31.52,14.23,50.33,14.23C1674.21,514.82,1691.5,510.25,1706.24,500.59Z"/><path class="cls-3" d="M1892.29,226.06h137.77c36.1,0,68.13,7.12,95.07,21.86s48.3,35.08,63,61.52S2210,366.88,2210,403s-7.12,67.1-21.86,93.54-36.1,46.77-63,61.51-59,21.86-95.07,21.86H1892.29ZM2025,508.21c31,0,55.41-9.15,73.72-27.45s27.45-44.23,27.45-77.78S2117,343.5,2098.7,325.2,2056,297.74,2025,297.74h-49.82V508.21Z"/><path class="cls-4" d="M2640.1,226.06V295.2l-175.39,213h178.44v71.68H2362.53V510.75l175.39-213H2362.53V226.06Z"/><path class="cls-5" d="M1470.8,703.71a18.56,18.56,0,0,1,10.31-2.9,17.55,17.55,0,0,1,11,3.3,15.64,15.64,0,0,1,5.5,8.91h14.1a35.55,35.55,0,0,0-5.3-12.61,25.94,25.94,0,0,0-10.1-8.7,33.79,33.79,0,0,0-15.2-3.1,32.32,32.32,0,0,0-17.41,4.6,31.34,31.34,0,0,0-11.8,12.9,39.94,39.94,0,0,0-4.3,18.91,39.49,39.49,0,0,0,4.3,18.8,31.79,31.79,0,0,0,29.21,17.6,33.79,33.79,0,0,0,15.2-3.1,27.4,27.4,0,0,0,10.2-8.5,32.25,32.25,0,0,0,5.2-12.3h-13.9a14.16,14.16,0,0,1-5.6,8.5,18.47,18.47,0,0,1-11.1,3.2,17.85,17.85,0,0,1-10.31-3,19.45,19.45,0,0,1-6.9-8.4,29.84,29.84,0,0,1-2.5-12.8,30.7,30.7,0,0,1,2.5-12.91A20.7,20.7,0,0,1,1470.8,703.71Z"/><path class="cls-6" d="M1645,725.62a21.54,21.54,0,0,0,3.8-12.8c0-6.91-2.4-12.41-7.1-16.51s-11.51-6.1-20-6.1h-28.4v69.61h13.6v-24.1h13.9l15.31,24.1h15.8l-17.21-26.3A23.24,23.24,0,0,0,1645,725.62Zm-13.6-4.6c-2.5,1.9-6.31,2.9-11.51,2.9h-13V702h13c5.2,0,9,.9,11.51,2.6s3.59,4.4,3.59,8.1S1633.81,719.12,1631.41,721Z"/><rect class="cls-6" x="1731.6" y="690.21" width="13.6" height="69.6"/><path class="cls-5" d="M1850.5,703.71a18.55,18.55,0,0,1,10.3-2.9,17.55,17.55,0,0,1,11,3.3,15.64,15.64,0,0,1,5.5,8.91h14.1a35.55,35.55,0,0,0-5.3-12.61,25.94,25.94,0,0,0-10.1-8.7,33.79,33.79,0,0,0-15.2-3.1,32.31,32.31,0,0,0-17.4,4.6,31.34,31.34,0,0,0-11.8,12.9,39.94,39.94,0,0,0-4.3,18.91,39.49,39.49,0,0,0,4.3,18.8,31.78,31.78,0,0,0,29.2,17.6,33.79,33.79,0,0,0,15.2-3.1,27.4,27.4,0,0,0,10.2-8.5,32.25,32.25,0,0,0,5.2-12.3h-13.9a14.16,14.16,0,0,1-5.6,8.5,18.47,18.47,0,0,1-11.1,3.2,17.84,17.84,0,0,1-10.3-3,19.38,19.38,0,0,1-6.9-8.4,29.84,29.84,0,0,1-2.5-12.8,30.7,30.7,0,0,1,2.5-12.91A20.62,20.62,0,0,1,1850.5,703.71Z"/><polygon class="cls-6" points="2030.9 690.21 2014.5 690.21 1986.6 718.42 1986.6 690.21 1973 690.21 1973 759.82 1986.6 759.82 1986.6 730.22 2014.9 759.82 2032.6 759.82 1997.8 723.52 2030.9 690.21"/><polygon class="cls-6" points="2124.9 730.32 2160.3 730.32 2160.3 718.42 2124.9 718.42 2124.9 702.11 2161.5 702.11 2161.5 690.21 2111.3 690.21 2111.3 759.82 2162 759.82 2162 747.92 2124.9 747.92 2124.9 730.32"/><polygon class="cls-6" points="2241.4 690.21 2241.4 702.11 2264.6 702.11 2264.6 759.82 2278.2 759.82 2278.2 702.11 2301.4 702.11 2301.4 690.21 2241.4 690.21"/></svg>